#!OML:ASF Y:\EmotionMaleHayes\Project 1\Capture day 1\Session 1\Male1.ASF
:FULLY-SPECIFIED
:DEGREES
202
root -27.8246 16.8326 1.68551 -93.5031 87.3646 -93.1945
lowerback 9.66826 2.44915 1.28424
upperback 1.13091 3.45555 0.571441
thorax -4.19744 1.70971 -0.58053
lowerneck -23.94 0.738075 1.94496
upperneck 16.4878 0.984443 -2.87201
head 9.1254 0.253141 -1.16844
rclavicle -4.17013e-014 6.06293e-015
rhumerus -36.496 20.2747 -96.2987
rradius 35.1562
rwrist -1.58617
rhand -5.81408 -34.8051
rfingers 7.12502
rthumb 20.0111 -63.7947
lclavicle -4.17013e-014 6.06293e-015
lhumerus -41.7453 -9.69387 88.9038
lradius 30.2532
lwrist -4.08281
lhand -16.4631 -24.4261
lfingers 7.12502
lthumb 9.75334 5.32804
rfemur 9.95216 -11.3731 21.015
rtibia 6.10582
rfoot -19.8305 3.30551
rtoes 15.3226
lfemur -15.8236 5.30265 -6.89086
ltibia 45.232
lfoot -13.0395 8.20431
ltoes -5.42374
203
root -27.7941 16.8368 1.70066 -98.4673 87.7261 -98.1374
lowerback 9.55342 2.44268 0.923361
upperback 1.26173 3.40204 0.452976
thorax -4.01173 1.69112 -0.485341
lowerneck -23.9948 0.713881 1.99156
upperneck 16.3113 0.946896 -2.94862
head 9.07288 0.229573 -1.20706
rclavicle -1.36416e-014 -8.34896e-015
rhumerus -36.1169 20.3529 -96.2005
rradius 35.1503
rwrist -1.36529
rhand -6.44017 -34.6082
rfingers 7.12502
rthumb 19.4092 -63.6596
lclavicle -1.36416e-014 -8.34896e-015
lhumerus -41.8283 -9.33344 88.7673
lradius 29.924
lwrist -4.51741
lhand -16.0769 -24.1777
lfingers 7.12502
lthumb 10.126 5.55862
rfemur 10.2996 -11.4323 20.5945
rtibia 5.82913
rfoot -19.8866 3.25856
rtoes 15.9179
lfemur -16.4804 5.37167 -7.57072
ltibia 45.5037
lfoot -12.9723 7.8969
ltoes -5.21404
204
root -27.7664 16.8359 1.7117 -95.6535 88.0361 -95.3549
lowerback 9.65356 2.55495 0.699276
upperback 1.22489 3.52167 0.30686
thorax -4.10843 1.75132 -0.532757
lowerneck -24.1822 0.675092 2.03265
upperneck 16.4375 0.877852 -2.94199
head 9.14693 0.198989 -1.22282
rclavicle -7.82715e-015 1.17283e-014
rhumerus -35.9772 20.2006 -96.1478
rradius 35.2679
rwrist -0.725409
rhand -7.91038 -34.3361
rfingers 7.12502
rthumb 17.9951 -63.5237
lclavicle -7.82715e-015 1.17283e-014
lhumerus -42.1169 -8.9815 88.6092
lradius 29.5365
lwrist -5.18502
lhand -16.2683 -24.1252
lfingers 7.12502
lthumb 9.94136 5.62003
rfemur 10.4322 -11.3845 20.2938
rtibia 5.76717
rfoot -19.8769 3.25765
rtoes 16.1607
lfemur -17.0538 5.72365 -8.13303
ltibia 45.5981
lfoot -12.9966 7.55149
ltoes -5.30749
205
root -27.7497 16.8303 1.71181 -70.2711 88.0102 -70.3266
lowerback 9.58265 2.91783 0.797171
upperback 1.05332 4.00376 0.161446
thorax -4.22493 1.98375 -0.801355
lowerneck -24.285 0.588836 1.9479
upperneck 16.525 0.778054 -2.88969
head 9.19164 0.15206 -1.20637
rclavicle -1.97542e-015 3.8763e-015
rhumerus -35.8591 20.0964 -96.0874
rradius 35.4448
rwrist -0.365903
rhand -9.7848 -33.4731
rfingers 7.12502
rthumb 16.1909 -62.8169
lclavicle -1.97542e-015 3.8763e-015
lhumerus -42.4508 -8.91374 88.6326
lradius 29.2625
lwrist -5.42523
lhand -16.4371 -23.7172
lfingers 7.12502
lthumb 9.77842 6.03573
rfemur 9.78115 -11.5941 20.0928
rtibia 6.31586
rfoot -19.8094 4.21962
rtoes 16.0702
lfemur -17.8716 6.73538 -8.45458
ltibia 45.5962
lfoot -12.9834 7.37413
ltoes -5.42615
206
root -27.716 16.8295 1.71979 -74.8805 88.1246 -75.0982
lowerback 9.23339 2.92202 0.853357
upperback 1.13776 4.01021 0.130799
thorax -3.93642 1.98957 -0.841555
lowerneck -24.209 0.483288 1.78088
upperneck 16.2377 0.676089 -2.84386
head 9.07494 0.100023 -1.17593
rclavicle -1.5704e-014 3.08116e-015
rhumerus -35.513 20.3314 -95.9978
rradius 35.4618
rwrist -0.980755
rhand -11.0647 -32.7301
rfingers 7.12502
rthumb 14.9581 -62.1699
lclavicle -1.5704e-014 3.08116e-015
lhumerus -42.6038 -8.82811 88.7537
lradius 29.1056
lwrist -5.32059
lhand -16.1673 -23.2675
lfingers 7.12502
lthumb 10.0387 6.47311
rfemur 9.83525 -12.0824 19.9103
rtibia 6.2555
rfoot -19.851 4.54039
rtoes 16.2415
lfemur -18.7268 6.84121 -8.81923
ltibia 45.5435
lfoot -12.7282 7.14837
ltoes -6.87746
207
root -27.6783 16.835 1.73347 -79.6068 88.6187 -79.7251
lowerback 9.34022 2.90533 0.404613
upperback 1.14125 3.93874 0.0169458
thorax -4.01552 1.95961 -0.706701
lowerneck -24.1313 0.460564 1.7494
upperneck 16.2276 0.6774 -2.93422
head 9.05874 0.0888775 -1.20163
rclavicle 1.49461e-014 5.1684e-015
rhumerus -35.4186 20.4505 -96.0288
rradius 35.4969
rwrist -1.46972
rhand -10.5159 -32.9847
rfingers 7.12502
rthumb 15.4868 -62.3844
lclavicle 1.49461e-014 5.1684e-015
lhumerus -43.0396 -8.3484 88.637
lradius 28.902
lwrist -5.72665
lhand -16.7332 -23.7192
lfingers 7.12502
lthumb 9.49277 6.04698
rfemur 10.2259 -12.2754 19.3122
rtibia 6.14853
rfoot -19.9443 4.55892
rtoes 16.7312
lfemur -19.109 6.78935 -9.60083
ltibia 45.2087
lfoot -12.7218 6.80949
ltoes -6.44401
